<svg xmlns="http://www.w3.org/2000/svg" viewBox="0 0 64 64" fill="none">
  <!-- Background circle -->
  <circle cx="32" cy="32" r="32" fill="#1a1a2e"/>

  <!-- Falcon body -->
  <g transform="translate(8, 6)">
    <!-- Main body -->
    <path d="M28 38 C24 36 18 32 14 24 C12 19 13 14 16 11 C19 8 24 8 27 10 C28 11 29 12 30 14 C31 12 33 10 36 9 C40 8 44 10 45 14 C46 18 44 23 40 27 C36 31 32 36 28 38 Z"
      fill="#f97316"/>
    <!-- Wing left -->
    <path d="M14 24 C10 22 5 20 3 16 C1 12 3 8 7 8 C11 8 15 11 16 16 C17 19 16 22 14 24 Z"
      fill="#fb923c"/>
    <!-- Wing right -->
    <path d="M40 27 C44 25 49 23 50 18 C51 13 48 9 44 9 C40 9 37 12 37 17 C37 21 38 24 40 27 Z"
      fill="#fb923c"/>
    <!-- Head -->
    <ellipse cx="28" cy="9" rx="5" ry="5.5" fill="#f97316"/>
    <!-- Eye -->
    <circle cx="30" cy="7.5" r="1.5" fill="#fff"/>
    <circle cx="30.5" cy="7.5" r="0.7" fill="#1a1a2e"/>
    <!-- Beak -->
    <path d="M33 9 L36 10.5 L33 11.5 Z" fill="#fbbf24"/>
    <!-- Tail feathers -->
    <path d="M22 38 C20 42 18 46 15 50 C19 48 23 45 25 42 Z" fill="#ea6c0a"/>
    <path d="M28 38 C28 43 28 48 26 52 C29 49 31 45 31 41 Z" fill="#f97316"/>
    <path d="M33 38 C35 42 37 46 40 49 C37 46 33 43 32 39 Z" fill="#ea6c0a"/>
    <!-- Talons -->
    <path d="M20 50 C18 52 15 53 13 52" stroke="#fbbf24" stroke-width="1.5" stroke-linecap="round" fill="none"/>
    <path d="M20 50 C19 54 18 56 16 56" stroke="#fbbf24" stroke-width="1.5" stroke-linecap="round" fill="none"/>
    <path d="M26 52 C25 55 24 57 22 58" stroke="#fbbf24" stroke-width="1.5" stroke-linecap="round" fill="none"/>
    <path d="M26 52 C27 55 27 57 26 58" stroke="#fbbf24" stroke-width="1.5" stroke-linecap="round" fill="none"/>
  </g>
</svg>
